<svg xmlns="http://www.w3.org/2000/svg" viewBox="0 0 16 16" width="16" height="16" preserveAspectRatio="xMidYMid meet" style="vertical-align: middle;"><g fill="currentColor"><g><path fill-rule="evenodd" clip-rule="evenodd" d="M0 2.5C0 1.5335 0.783502 0.75 1.75 0.75H14.25C15.2165 0.75 16 1.5335 16 2.5V4.5C16 5.29276 15.4729 5.96239 14.75 6.17753V13C14.75 14.2426 13.7426 15.25 12.5 15.25H3.5C2.25736 15.25 1.25 14.2426 1.25 13V6.17753C0.527128 5.96239 0 5.29276 0 4.5V2.5ZM2.75 6.25H13.25V13C13.25 13.4142 12.9142 13.75 12.5 13.75H3.5C3.08579 13.75 2.75 13.4142 2.75 13V6.25ZM1.75 2.25C1.61193 2.25 1.5 2.36193 1.5 2.5V4.5C1.5 4.63807 1.61193 4.75 1.75 4.75H14.25C14.3881 4.75 14.5 4.63807 14.5 4.5V2.5C14.5 2.36193 14.3881 2.25 14.25 2.25H1.75ZM6.25 8.5C5.83579 8.5 5.5 8.83579 5.5 9.25C5.5 9.66421 5.83579 10 6.25 10H9.75C10.1642 10 10.5 9.66421 10.5 9.25C10.5 8.83579 10.1642 8.5 9.75 8.5H6.25Z"></path></g></g></svg>