<svg xmlns="http://www.w3.org/2000/svg" viewBox="0 0 16 16" width="16" height="16" preserveAspectRatio="xMidYMid meet" style="vertical-align: middle;"><g fill="currentColor"><path fill-rule="evenodd" clip-rule="evenodd" d="M8 1.5C6.7984 1.5 5.75 2.54502 5.75001 3.75L5.75 5.65745C7.24226 5.44206 8.75774 5.44206 10.25 5.65745V3.75C10.25 2.53689 9.2435 1.5 8 1.5ZM4.25001 3.75L4.25 5.91951L3.59751 6.03815C2.52765 6.23267 1.75 7.16446 1.75 8.25186V13.2481C1.75 14.3355 2.52766 15.2673 3.59751 15.4618L5.18255 15.75C7.04558 16.0888 8.95442 16.0888 10.8174 15.75L12.4025 15.4618C13.4723 15.2673 14.25 14.3355 14.25 13.2481V8.25186C14.25 7.16446 13.4723 6.23267 12.4025 6.03815L11.75 5.91952V3.75C11.75 1.72311 10.0865 0 8 0C5.97159 0 4.25001 1.71499 4.25001 3.75ZM10.5491 7.22576C8.86352 6.91929 7.13648 6.91929 5.45088 7.22576L3.86584 7.51395C3.50922 7.57879 3.25 7.88939 3.25 8.25186V13.2481C3.25 13.6106 3.50922 13.9212 3.86584 13.986L5.45088 14.2742C7.13648 14.5807 8.86352 14.5807 10.5491 14.2742L12.1342 13.986C12.4908 13.9212 12.75 13.6106 12.75 13.2481V8.25186C12.75 7.88939 12.4908 7.57879 12.1342 7.51395L10.5491 7.22576ZM8 11.75C8.55228 11.75 9 11.3023 9 10.75C9 10.1977 8.55228 9.75 8 9.75C7.44772 9.75 7 10.1977 7 10.75C7 11.3023 7.44772 11.75 8 11.75Z"></path></g></svg>