<svg xmlns="http://www.w3.org/2000/svg" viewBox="0 0 16 16" width="14" height="14" preserveAspectRatio="xMidYMid meet" style="vertical-align: middle;"><g fill="currentColor"><path fill-rule="evenodd" clip-rule="evenodd" d="M1 2.75C1 1.50736 2.00736 0.5 3.25 0.5H12.75C13.9926 0.5 15 1.50736 15 2.75V13.25C15 14.4926 13.9926 15.5 12.75 15.5H3.25C2.00736 15.5 1 14.4926 1 13.25V2.75ZM3.25 2C2.83579 2 2.5 2.33579 2.5 2.75V13.25C2.5 13.6642 2.83579 14 3.25 14H4.75V2H3.25ZM12.75 14H6.25V2H12.75C13.1642 2 13.5 2.33579 13.5 2.75V13.25C13.5 13.6642 13.1642 14 12.75 14ZM8.25 5C7.83579 5 7.5 5.33579 7.5 5.75C7.5 6.16421 7.83579 6.5 8.25 6.5H11.5C11.9142 6.5 12.25 6.16421 12.25 5.75C12.25 5.33579 11.9142 5 11.5 5H8.25Z"></path></g></svg>